name analog
datacolumns 19
datarows 26
range 0.31850000000000006 0.33100000000000007
endheader
time	ground_force_vx	ground_force_vy	ground_force_vz	ground_force_px	ground_force_py	ground_force_pz	l_ground_force_vx	l_ground_force_vy	l_ground_force_vz	l_ground_force_px	l_ground_force_py	l_ground_force_pz	ground_torque_x	ground_torque_y	ground_torque_z	l_ground_torque_x	l_ground_torque_y	l_ground_torque_z
0.31850000000000006	-0.0	-0.0	-0.0	1.4235204458236694	-4.365467548370361	-778.3781127929688	-0.0	-0.0	-0.0	-0.0	-0.0	-0.0	-0.0	-0.0	-0.0	-0.0	-0.0	-0.0
0.31900000000000006	-0.0	-0.0	-0.0	0.6244735717773438	-4.631048202514648	-777.7244262695312	-0.0	-0.0	-0.0	-0.0	-0.0	-0.0	-0.0	-0.0	-0.0	-0.0	-0.0	-0.0
0.31950000000000006	-0.0	-0.0	-0.0	0.7993131875991821	-3.5848960876464844	-777.0242309570312	-0.0	-0.0	-0.0	-0.0	-0.0	-0.0	-0.0	-0.0	-0.0	-0.0	-0.0	-0.0
0.32000000000000006	-0.0	-0.0	-0.0	0.3482100665569305	-4.370839595794678	-779.094482421875	-0.0	-0.0	-0.0	-0.0	-0.0	-0.0	-0.0	-0.0	-0.0	-0.0	-0.0	-0.0
0.32050000000000006	-0.0	-0.0	-0.0	0.2643335163593292	-5.083727836608887	-778.421630859375	-0.0	-0.0	-0.0	-0.0	-0.0	-0.0	-0.0	-0.0	-0.0	-0.0	-0.0	-0.0
0.32100000000000006	-0.0	-0.0	-0.0	0.3520618081092834	-5.526084899902344	-781.5619506835938	-0.0	-0.0	-0.0	-0.0	-0.0	-0.0	-0.0	-0.0	-0.0	-0.0	-0.0	-0.0
0.32150000000000006	-0.0	-0.0	-0.0	0.5306766033172607	-6.0608673095703125	-782.9756469726562	-0.0	-0.0	-0.0	-0.0	-0.0	-0.0	-0.0	-0.0	-0.0	-0.0	-0.0	-0.0
0.32200000000000006	-0.0	-0.0	-0.0	0.0014514464419335	-6.865941047668457	-785.47216796875	-0.0	-0.0	-0.0	-0.0	-0.0	-0.0	-0.0	-0.0	-0.0	-0.0	-0.0	-0.0
0.32250000000000006	-0.0	-0.0	-0.0	-0.6244735717773438	-7.051064014434815	-787.2159423828125	-0.0	-0.0	-0.0	-0.0	-0.0	-0.0	-0.0	-0.0	-0.0	-0.0	-0.0	-0.0
0.32300000000000006	-0.0	-0.0	-0.0	-0.8934451937675476	-7.046657085418701	-787.976318359375	-0.0	-0.0	-0.0	-0.0	-0.0	-0.0	-0.0	-0.0	-0.0	-0.0	-0.0	-0.0
0.32350000000000007	-0.0	-0.0	-0.0	-2.142314910888672	-7.395300388336182	-788.6607666015625	-0.0	-0.0	-0.0	-0.0	-0.0	-0.0	-0.0	-0.0	-0.0	-0.0	-0.0	-0.0
0.32400000000000007	-0.0	-0.0	-0.0	-2.949939489364624	-7.128037452697754	-789.0040283203125	-0.0	-0.0	-0.0	-0.0	-0.0	-0.0	-0.0	-0.0	-0.0	-0.0	-0.0	-0.0
0.32450000000000007	-0.0	-0.0	-0.0	-4.189530372619629	-6.504279136657715	-786.8848876953125	-0.0	-0.0	-0.0	-0.0	-0.0	-0.0	-0.0	-0.0	-0.0	-0.0	-0.0	-0.0
0.32500000000000007	-0.0	-0.0	-0.0	-5.000047206878662	-6.416325092315674	-786.893310546875	-0.0	-0.0	-0.0	-0.0	-0.0	-0.0	-0.0	-0.0	-0.0	-0.0	-0.0	-0.0
0.32550000000000007	-0.0	-0.0	-0.0	-5.267420291900635	-5.8925981521606445	-789.3255004882812	-0.0	-0.0	-0.0	-0.0	-0.0	-0.0	-0.0	-0.0	-0.0	-0.0	-0.0	-0.0
0.32600000000000007	-0.0	-0.0	-0.0	-5.621184825897217	-6.150919437408447	-787.2526245117188	-0.0	-0.0	-0.0	-0.0	-0.0	-0.0	-0.0	-0.0	-0.0	-0.0	-0.0	-0.0
0.32650000000000007	-0.0	-0.0	-0.0	-6.061978340148926	-6.329124927520752	-788.2701416015625	-0.0	-0.0	-0.0	-0.0	-0.0	-0.0	-0.0	-0.0	-0.0	-0.0	-0.0	-0.0
0.32700000000000007	-0.0	-0.0	-0.0	-5.7938151359558105	-6.0608673095703125	-786.1914672851562	-0.0	-0.0	-0.0	-0.0	-0.0	-0.0	-0.0	-0.0	-0.0	-0.0	-0.0	-0.0
0.32750000000000007	-0.0	-0.0	-0.0	-5.620995998382568	-5.973936557769775	-787.240966796875	-0.0	-0.0	-0.0	-0.0	-0.0	-0.0	-0.0	-0.0	-0.0	-0.0	-0.0	-0.0
0.32800000000000007	-0.0	-0.0	-0.0	-5.800022602081299	-6.682772636413574	-788.6533813476562	-0.0	-0.0	-0.0	-0.0	-0.0	-0.0	-0.0	-0.0	-0.0	-0.0	-0.0	-0.0
0.32850000000000007	-0.0	-0.0	-0.0	-5.800460338592529	-7.397231578826904	-790.7628784179688	-0.0	-0.0	-0.0	-0.0	-0.0	-0.0	-0.0	-0.0	-0.0	-0.0	-0.0	-0.0
0.32900000000000007	-0.0	-0.0	-0.0	-5.888430118560791	-7.757561206817627	-791.123046875	-0.0	-0.0	-0.0	-0.0	-0.0	-0.0	-0.0	-0.0	-0.0	-0.0	-0.0	-0.0
0.32950000000000007	-0.0	-0.0	-0.0	-5.712353706359863	-8.200956344604492	-792.5224609375	-0.0	-0.0	-0.0	-0.0	-0.0	-0.0	-0.0	-0.0	-0.0	-0.0	-0.0	-0.0
0.33000000000000007	-0.0	-0.0	-0.0	-6.866389751434326	-7.937032222747803	-791.1182861328125	-0.0	-0.0	-0.0	-0.0	-0.0	-0.0	-0.0	-0.0	-0.0	-0.0	-0.0	-0.0
0.33050000000000007	-0.0	-0.0	-0.0	-6.691126823425293	-8.02038288116455	-792.53173828125	-0.0	-0.0	-0.0	-0.0	-0.0	-0.0	-0.0	-0.0	-0.0	-0.0	-0.0	-0.0
0.33100000000000007	-0.0	-0.0	-0.0	-7.1371235847473145	-6.773627758026123	-791.8272094726562	-0.0	-0.0	-0.0	-0.0	-0.0	-0.0	-0.0	-0.0	-0.0	-0.0	-0.0	-0.0
